<svg width="64" height="56" viewBox="0 0 64 56" fill="none" xmlns="http://www.w3.org/2000/svg">
<path d="M63.4453 25.9219C63.4453 22.9064 60.992 20.4531 57.9766 20.4531H47.7702C49.3503 16.4058 49.9899 11.642 49.8665 7.40141C49.843 6.59217 49.812 6.12418 49.77 5.82955C49.6993 2.87547 47.2737 0.492188 44.3047 0.492188C41.2892 0.492188 38.8359 2.94547 38.8359 5.96094V7.32812C38.8359 15.975 27.7325 20.8333 19.353 22.9167C18.7194 21.4683 17.2732 20.4531 15.5938 20.4531H1.92188C1.16691 20.4531 0.554688 21.0654 0.554688 21.8203V54.6328C0.554688 55.3878 1.16691 56 1.92188 56H15.5938C17.262 56 18.6999 54.9983 19.34 53.5652C20.0338 53.7432 20.6779 53.9114 21.2725 54.0667C26.046 55.3134 28.6755 56 35.0707 56H49.7734C52.7889 56 55.2422 53.5467 55.2422 50.5312C55.2422 49.4069 54.9008 48.361 54.3166 47.4909C56.4286 46.7522 57.9766 44.7342 57.9766 42.3281C57.9766 41.2079 57.6435 40.1585 57.0611 39.2845C59.1638 38.5446 60.7109 36.5312 60.7109 34.125C60.7109 33.0006 60.3696 31.9547 59.7854 31.0846C61.8974 30.346 63.4453 28.328 63.4453 25.9219ZM16.9609 51.8984C16.9609 52.6523 16.3476 53.2656 15.5938 53.2656H3.28906V23.1875H15.5938C16.3476 23.1875 16.9609 23.8008 16.9609 24.5547V51.8984ZM57.9766 28.6562C55.0441 28.6562 54.345 28.6562 51.1406 28.6562C50.3857 28.6562 49.7734 29.2685 49.7734 30.0234C49.7734 30.7784 50.3857 31.3906 51.1406 31.3906H55.2422C56.7499 31.3906 57.9766 32.6173 57.9766 34.125C57.9766 35.6352 56.7524 36.8594 55.2422 36.8594H48.4062C47.6513 36.8594 47.0391 37.4716 47.0391 38.2266C47.0391 38.9815 47.6513 39.5938 48.4062 39.5938H52.5078C53.9976 39.5938 55.2422 40.7839 55.2422 42.3281C55.2422 43.8383 54.018 45.0625 52.5078 45.0625C49.5753 45.0625 48.8763 45.0625 45.6719 45.0625C44.9169 45.0625 44.3047 45.6747 44.3047 46.4297C44.3047 47.1846 44.9169 47.7969 45.6719 47.7969H49.7734C51.2812 47.7969 52.5078 49.0235 52.5078 50.5312C52.5078 52.039 51.2812 53.2656 49.7734 53.2656H35.0707C29.0268 53.2656 26.6662 52.6492 21.9635 51.421C21.2745 51.2411 20.5189 51.0438 19.6953 50.8338V25.6519C29.5894 23.2951 41.5703 17.5425 41.5703 7.32812V5.96094C41.5703 4.4532 42.797 3.22656 44.3047 3.22656C45.8097 3.22656 47.0362 4.45129 47.0391 5.9567V5.96094C47.0391 6.55512 47.7806 13.8473 44.807 20.4531H40.2031C39.4482 20.4531 38.8359 21.0654 38.8359 21.8203C38.8359 22.5753 39.4482 23.1875 40.2031 23.1875C41.1578 23.1875 56.4182 23.1875 57.9766 23.1875C59.4843 23.1875 60.7109 24.4141 60.7109 25.9219C60.7109 27.4321 59.4868 28.6562 57.9766 28.6562Z" fill="white"/>
</svg>
